<?xml version="1.0" encoding="iso-8859-1"?>
<!-- Uploaded to: SVG Repo, www.svgrepo.com, Generator: SVG Repo Mixer Tools -->
<svg fill="#000000" height="800px" width="800px" version="1.1" id="Layer_1" xmlns="http://www.w3.org/2000/svg" xmlns:xlink="http://www.w3.org/1999/xlink" 
	 viewBox="0 0 512 512" xml:space="preserve">
<g>
	<g>
		<path d="M507.699,267.409l-51.2-76.809c-4.745-7.125-12.74-11.401-21.299-11.401h-128v153.6H0V384c0,14.14,11.46,25.6,25.6,25.6
			h65.297c5.948,29.175,31.795,51.2,62.703,51.2c30.908,0,56.755-22.025,62.703-51.2h117.794c5.948,29.175,31.795,51.2,62.703,51.2
			s56.755-22.025,62.703-51.2H486.4c14.14,0,25.6-11.46,25.6-25.6V281.608C512,276.557,510.507,271.616,507.699,267.409z
			 M90.897,384H25.6v-25.6h77.107C97.058,365.875,92.834,374.494,90.897,384z M153.6,435.2c-21.205,0-38.4-17.195-38.4-38.4
			c0-21.205,17.195-38.4,38.4-38.4c21.205,0,38.4,17.195,38.4,38.4C192,418.005,174.805,435.2,153.6,435.2z M307.2,384h-90.897
			c-1.937-9.506-6.161-18.125-11.81-25.6H307.2V384z M332.8,204.8h102.4l45.756,68.634l-68.25-17.067
			c-1.015-0.239-2.056-0.367-3.106-0.367h-76.8V204.8z M396.8,435.2c-21.205,0-38.4-17.195-38.4-38.4
			c0-21.205,17.195-38.4,38.4-38.4c21.205,0,38.4,17.195,38.4,38.4C435.2,418.005,418.005,435.2,396.8,435.2z M486.4,320h-25.6v25.6
			h25.6V384h-26.897c-5.948-29.175-31.795-51.2-62.703-51.2s-56.755,22.025-62.703,51.2H332.8V281.6h75.221l78.379,19.601V320z"/>
	</g>
</g>
<g>
	<g>
		<path d="M256,51.2H51.2c-14.14,0-25.6,11.46-25.6,25.6v204.8c0,14.14,11.46,25.6,25.6,25.6H256c14.14,0,25.6-11.46,25.6-25.6V76.8
			C281.6,62.66,270.14,51.2,256,51.2z M140.8,76.8h25.6V128h-25.6V76.8z M166.4,281.6h-25.6v-51.2h25.6V281.6z M256,281.6h-64v-76.8
			h-76.8v76.8h-64V76.8h64v76.8H192V76.8h64V281.6z"/>
	</g>
</g>
</svg>