<?xml version="1.0" encoding="iso-8859-1"?>
<!-- Uploaded to: SVG Repo, www.svgrepo.com, Generator: SVG Repo Mixer Tools -->
<svg fill="#000000" version="1.1" id="Layer_1" xmlns="http://www.w3.org/2000/svg" xmlns:xlink="http://www.w3.org/1999/xlink" 
	 viewBox="0 0 512 512" xml:space="preserve">
<g>
	<g>
		<path d="M460.8,153.6H51.2C22.921,153.6,0,176.52,0,204.8v230.4c0,28.279,22.921,51.2,51.2,51.2h409.6
			c28.279,0,51.2-22.921,51.2-51.2V204.8C512,176.52,489.079,153.6,460.8,153.6z M486.4,435.2c0,14.114-11.486,25.6-25.6,25.6H51.2
			c-14.114,0-25.6-11.486-25.6-25.6V204.8c0-14.114,11.486-25.6,25.6-25.6h409.6c14.114,0,25.6,11.486,25.6,25.6V435.2z"/>
	</g>
</g>
<g>
	<g>
		<path d="M392.038,55.176c-11.955-25.634-42.411-36.719-68.045-24.764L114.714,128h60.57l159.531-74.385
			c12.791-5.965,28.058-0.41,34.022,12.382L397.756,128h28.245L392.038,55.176z"/>
	</g>
</g>
<g>
	<g>
		<path d="M153.6,204.8H76.8c-14.14,0-25.6,11.46-25.6,25.6v51.2c0,14.14,11.46,25.6,25.6,25.6h76.8c14.14,0,25.6-11.46,25.6-25.6
			v-51.2C179.2,216.26,167.74,204.8,153.6,204.8z M153.6,281.6H76.8v-51.2h76.8V281.6z"/>
	</g>
</g>
<g>
	<g>
		<rect x="51.2" y="384" width="256" height="25.6"/>
	</g>
</g>
<g>
	<g>
		<path d="M422.4,358.4c-9.882,0-18.799,3.84-25.6,9.967c-6.801-6.127-15.718-9.967-25.6-9.967c-21.205,0-38.4,17.195-38.4,38.4
			c0,21.205,17.195,38.4,38.4,38.4c9.882,0,18.799-3.84,25.6-9.967c6.801,6.127,15.718,9.967,25.6,9.967
			c21.205,0,38.4-17.195,38.4-38.4C460.8,375.595,443.605,358.4,422.4,358.4z M371.2,409.6c-7.057,0-12.8-5.743-12.8-12.8
			c0-7.057,5.743-12.8,12.8-12.8s12.8,5.743,12.8,12.8C384,403.857,378.257,409.6,371.2,409.6z M422.4,409.6
			c-7.057,0-12.8-5.743-12.8-12.8c0-7.057,5.743-12.8,12.8-12.8s12.8,5.743,12.8,12.8C435.2,403.857,429.457,409.6,422.4,409.6z"/>
	</g>
</g>
</svg>